<svg version="1.1"
	xmlns="http://www.w3.org/2000/svg"
	xmlns:xlink="http://www.w3.org/1999/xlink" x="0px" y="0px" width="59.5px" height="8.6px" viewBox="0 0 59.5 8.6" style="enable-background:new 0 0 59.5 8.6;">
	<style type="text/css">
	.st0{fill:#00FF33;}
	</style>
	<g>
		<path class="st0" d="M4.6,8.3C4.3,8.4,3.7,8.6,2.9,8.6C1.1,8.6,0,7.4,0,5.7c0-1.8,1.2-3.1,3.1-3.1c0.6,0,1.2,0.2,1.5,0.3L4.3,3.7
		C4.1,3.6,3.7,3.4,3.1,3.4c-1.3,0-2.1,1-2.1,2.2c0,1.3,0.9,2.2,2,2.2c0.6,0,1-0.2,1.3-0.3L4.6,8.3z"/>
		<path class="st0" d="M5.8,4.3c0-0.6,0-1.1,0-1.6h0.9l0,0.9h0c0.3-0.6,0.9-1.1,1.8-1.1c0.8,0,1.4,0.5,1.6,1.2h0
		c0.2-0.3,0.4-0.6,0.6-0.8c0.3-0.3,0.7-0.4,1.3-0.4c0.8,0,1.9,0.5,1.9,2.5v3.4h-1V5.2c0-1.1-0.4-1.8-1.3-1.8c-0.6,0-1.1,0.4-1.2,1
		c0,0.1-0.1,0.3-0.1,0.5v3.6h-1V5c0-0.9-0.4-1.6-1.2-1.6C7.6,3.4,7.1,4,6.9,4.5C6.9,4.7,6.8,4.8,6.8,5v3.5h-1V4.3z"/>
		<path class="st0" d="M20.8,0v7c0,0.5,0,1.1,0,1.5h-0.9l0-1h0c-0.3,0.6-1,1.1-2,1.1c-1.4,0-2.5-1.2-2.5-3c0-1.9,1.2-3.1,2.6-3.1
		c0.9,0,1.5,0.4,1.8,0.9h0V0H20.8z M19.8,5.1c0-0.1,0-0.3,0-0.4C19.6,4,19,3.4,18.2,3.4c-1.1,0-1.7,1-1.7,2.2c0,1.2,0.6,2.1,1.7,2.1
		c0.7,0,1.4-0.5,1.5-1.3c0-0.1,0-0.3,0-0.5V5.1z"/>
		<path class="st0" d="M29.5,4.4c0,2.8-1.7,4.3-3.8,4.3c-2.1,0-3.6-1.7-3.6-4.1c0-2.6,1.6-4.2,3.8-4.2C28.1,0.3,29.5,2,29.5,4.4z
		 M23.2,4.5c0,1.7,0.9,3.3,2.6,3.3c1.7,0,2.6-1.5,2.6-3.4c0-1.6-0.8-3.3-2.6-3.3C24.1,1.2,23.2,2.7,23.2,4.5z"/>
		<path class="st0" d="M30.8,4.3c0-0.6,0-1.1,0-1.6h0.9l0.1,1h0c0.3-0.6,1-1.1,1.9-1.1c0.8,0,2,0.5,2,2.5v3.5h-1.1V5.2
		c0-0.9-0.3-1.7-1.3-1.7c-0.7,0-1.2,0.5-1.4,1.1c0,0.1-0.1,0.3-0.1,0.5v3.5h-1.1V4.3z"/>
		<path class="st0" d="M37.4,7.2c0.5,0.3,1.2,0.5,1.9,0.5c1.1,0,1.7-0.6,1.7-1.4c0-0.8-0.4-1.2-1.5-1.6c-1.3-0.5-2.1-1.2-2.1-2.3
		c0-1.3,1-2.2,2.6-2.2c0.8,0,1.4,0.2,1.8,0.4l-0.3,0.9c-0.3-0.1-0.8-0.4-1.5-0.4c-1.1,0-1.5,0.7-1.5,1.2c0,0.8,0.5,1.1,1.6,1.6
		C41.3,4.5,42,5.1,42,6.3c0,1.2-0.9,2.3-2.8,2.3c-0.8,0-1.6-0.2-2.1-0.5L37.4,7.2z"/>
		<path class="st0" d="M46.7,8.5l-0.1-0.7h0c-0.3,0.5-0.9,0.9-1.8,0.9C43.6,8.6,43,7.8,43,7c0-1.4,1.2-2.2,3.5-2.2V4.7
		c0-0.5-0.1-1.3-1.3-1.3c-0.5,0-1.1,0.2-1.5,0.4l-0.2-0.7c0.5-0.3,1.2-0.5,1.9-0.5c1.8,0,2.2,1.2,2.2,2.4v2.2c0,0.5,0,1,0.1,1.4
		H46.7z M46.5,5.6c-1.2,0-2.5,0.2-2.5,1.3c0,0.7,0.5,1,1,1c0.8,0,1.2-0.5,1.4-1c0-0.1,0.1-0.2,0.1-0.3V5.6z"/>
		<path class="st0" d="M49.5,2.7L50.7,6c0.2,0.5,0.3,1,0.5,1.5h0c0.1-0.5,0.3-1,0.5-1.5l1.1-3.3h1.1l-2.3,5.8h-1l-2.2-5.8H49.5z"/>
		<path class="st0" d="M55.4,5.8c0,1.4,0.9,2,2,2c0.8,0,1.2-0.1,1.6-0.3l0.2,0.8c-0.4,0.2-1,0.4-1.9,0.4c-1.8,0-2.9-1.2-2.9-2.9
		c0-1.8,1-3.1,2.7-3.1c1.9,0,2.4,1.7,2.4,2.7c0,0.2,0,0.4,0,0.5H55.4z M58.5,5c0-0.7-0.3-1.7-1.5-1.7c-1.1,0-1.5,1-1.6,1.7H58.5z"/>
	</g>
</svg>

